<?xml version="1.0" standalone="no"?><!DOCTYPE svg PUBLIC "-//W3C//DTD SVG 1.1//EN" "http://www.w3.org/Graphics/SVG/1.1/DTD/svg11.dtd"><svg t="1555383667209" class="icon" style="" viewBox="0 0 1024 1024" version="1.1" xmlns="http://www.w3.org/2000/svg" p-id="1933" xmlns:xlink="http://www.w3.org/1999/xlink" width="200" height="200"><defs><style type="text/css"></style></defs><path d="M696.32 483.84c-2.56 2.56-5.12 2.56-5.12 5.12-25.6 25.6-53.76 51.2-79.36 79.36-148.48 145.92-302.08 304.64-448 450.56H2.56v-25.6l5.12-5.12c110.08-110.08 217.6-220.16 327.68-327.68l286.72-286.72 5.12-5.12h2.56c2.56 2.56 2.56 7.68 5.12 10.24 15.36 25.6 30.72 51.2 48.64 76.8l15.36 23.04c-2.56 2.56-2.56 5.12-2.56 5.12z" fill="#FFDF2E" p-id="1934"></path><path d="M798.72 0c-2.56 0-28.16 5.12-30.72 5.12-23.04 5.12-43.52 12.8-64 20.48-69.12 35.84-112.64 94.72-125.44 171.52-7.68 53.76 5.12 104.96 30.72 153.6 5.12 10.24 10.24 17.92 15.36 28.16-209.92 204.8-414.72 407.04-622.08 614.4V12.8C2.56 5.12 5.12 0 12.8 0h785.92zM232.96 353.28c-12.8 0-25.6 2.56-35.84 2.56-28.16 5.12-53.76 12.8-74.24 30.72-23.04 20.48-30.72 51.2-20.48 76.8 10.24 20.48 25.6 33.28 46.08 38.4 43.52 15.36 84.48 12.8 128-2.56 23.04-7.68 40.96-23.04 53.76-43.52 20.48-30.72 17.92-64-5.12-89.6-5.12-7.68-12.8-12.8-20.48-17.92-10.24-7.68-20.48-15.36-30.72-25.6s-10.24-25.6 0-33.28 17.92-17.92 28.16-25.6c17.92-20.48 23.04-43.52 17.92-69.12 0-17.92-10.24-33.28-23.04-46.08 15.36 5.12 25.6-5.12 33.28-15.36 2.56 0 2.56 0 2.56-2.56-2.56 0-5.12-2.56-7.68-2.56h-102.4c-12.8 0-25.6 2.56-38.4 7.68C148.48 153.6 128 181.76 128 225.28c0 35.84 30.72 76.8 71.68 79.36 7.68 0 15.36 0 23.04 2.56-5.12 15.36-2.56 30.72 10.24 46.08z" fill="#00A45D" p-id="1935"></path><path d="M232.96 353.28c-12.8-15.36-12.8-33.28-10.24-51.2-7.68 0-15.36 0-23.04-2.56-38.4 0-71.68-40.96-71.68-76.8 0-43.52 20.48-71.68 58.88-87.04 10.24-5.12 25.6-7.68 38.4-7.68h102.4c2.56 0 5.12 2.56 7.68 2.56 0 2.56-2.56 5.12-2.56 5.12-10.24 10.24-17.92 20.48-33.28 15.36 10.24 12.8 20.48 28.16 25.6 46.08 5.12 25.6 0 51.2-17.92 69.12-7.68 10.24-17.92 17.92-28.16 25.6-10.24 10.24-10.24 25.6 0 33.28s20.48 15.36 30.72 25.6c7.68 5.12 12.8 12.8 20.48 17.92 23.04 25.6 23.04 61.44 5.12 89.6-12.8 20.48-30.72 33.28-53.76 43.52-40.96 15.36-84.48 17.92-128 2.56-23.04-5.12-38.4-17.92-48.64-35.84-12.8-25.6-5.12-56.32 20.48-76.8 20.48-17.92 46.08-25.6 74.24-30.72 7.68-5.12 20.48-7.68 33.28-7.68zM230.4 488.96c20.48 0 38.4-2.56 53.76-12.8 25.6-15.36 30.72-46.08 12.8-66.56-12.8-12.8-28.16-23.04-43.52-35.84-2.56-2.56-5.12-2.56-7.68-2.56-10.24 0-20.48 0-30.72 2.56-17.92 0-33.28 5.12-48.64 15.36-10.24 7.68-20.48 15.36-23.04 30.72-5.12 23.04 2.56 38.4 20.48 51.2 23.04 12.8 46.08 15.36 66.56 17.92z m51.2-250.88c-2.56-7.68-2.56-17.92-5.12-25.6-5.12-20.48-15.36-38.4-33.28-51.2-23.04-17.92-53.76-12.8-64 17.92-10.24 33.28-2.56 64 20.48 92.16 15.36 15.36 35.84 20.48 56.32 10.24 17.92-7.68 25.6-23.04 25.6-43.52z" fill="#FFFFFF" p-id="1936"></path><path d="M230.4 488.96c-20.48 0-40.96-5.12-61.44-17.92-17.92-12.8-25.6-30.72-20.48-51.2 2.56-12.8 10.24-23.04 23.04-30.72 15.36-10.24 30.72-12.8 48.64-15.36 10.24 0 20.48-2.56 30.72-2.56 2.56 0 5.12 0 7.68 2.56 15.36 10.24 30.72 20.48 43.52 35.84 17.92 20.48 12.8 51.2-12.8 66.56-20.48 10.24-38.4 12.8-58.88 12.8z m51.2-250.88c0 20.48-7.68 35.84-25.6 43.52-17.92 7.68-40.96 5.12-56.32-10.24-23.04-25.6-33.28-58.88-20.48-92.16 10.24-30.72 40.96-35.84 66.56-20.48 17.92 12.8 25.6 30.72 33.28 51.2 0 10.24 0 20.48 2.56 28.16z" fill="#00A45B" p-id="1937"></path><path d="M522.24 663.04l-358.4 358.4h714.24l-355.84-358.4z" fill="#3386FB" p-id="1938"></path><path d="M606.72 573.44l-87.04 89.6 353.28 355.84H1024v-25.6L606.72 573.44z" fill="#F1F1F1" p-id="1939"></path><path d="M604.16 576L1024 1000.96V166.4l-419.84 409.6z" fill="#BDBDBD" p-id="1940"></path><path d="M1021.44 220.16c-2.56-12.8-12.8-74.24-23.04-92.16-2.56-2.56-12.8-23.04-15.36-25.6-25.6-35.84-61.44-64-102.4-81.92-20.48-7.68-43.52-12.8-66.56-15.36-7.68 0-17.92-5.12-25.6-5.12h20.48c74.24 2.56 140.8 0 215.04 0v181.76c0 2.56 0 20.48-2.56 38.4z" fill="#CA4335" p-id="1941"></path><path d="M716.8 222.72c0-43.52 35.84-79.36 79.36-79.36 43.52 0 79.36 35.84 79.36 79.36s-35.84 79.36-79.36 79.36S716.8 266.24 716.8 222.72z" fill="#812B24" p-id="1942"></path><path d="M1021.44 232.96c2.56-10.24 0-20.48 0-28.16v-2.56C1011.2 89.6 913.92 2.56 798.72 2.56c-122.88 0-215.04 97.28-222.72 222.72 0 20.48 10.24 89.6 33.28 125.44 12.8 23.04 30.72 48.64 43.52 71.68 20.48 35.84 43.52 69.12 64 104.96 20.48 35.84 35.84 71.68 48.64 110.08 5.12 20.48 12.8 40.96 15.36 61.44 5.12 20.48 7.68 40.96 10.24 61.44 0 5.12 5.12 7.68 10.24 7.68s7.68 0 7.68-7.68c2.56-17.92 2.56-35.84 7.68-51.2 2.56-15.36 7.68-30.72 12.8-46.08 5.12-17.92 10.24-35.84 17.92-53.76 10.24-25.6 23.04-51.2 35.84-76.8 30.72-53.76 64-104.96 94.72-158.72 2.56-5.12 5.12-10.24 10.24-17.92 17.92-38.4 33.28-79.36 33.28-122.88z m-299.52-7.68c0-38.4 28.16-69.12 64-76.8h10.24c43.52 0 74.24 33.28 76.8 76.8 0 40.96-33.28 76.8-76.8 76.8-7.68 0-15.36 0-23.04-2.56-28.16-10.24-51.2-40.96-51.2-74.24z" fill="#DE4A37" p-id="1943"></path></svg>