<?xml version="1.0" standalone="no"?><!DOCTYPE svg PUBLIC "-//W3C//DTD SVG 1.1//EN" "http://www.w3.org/Graphics/SVG/1.1/DTD/svg11.dtd"><svg t="1613747504398" class="icon" viewBox="0 0 1024 1024" version="1.1" xmlns="http://www.w3.org/2000/svg" p-id="2958" xmlns:xlink="http://www.w3.org/1999/xlink" width="200" height="200"><defs><style type="text/css"></style></defs><path d="M512 512m-512 0a512 512 0 1 0 1024 0 512 512 0 1 0-1024 0Z" fill="#FF5E17" p-id="2959"></path><path d="M268.242489 397.698844L232.470756 452.949333l66.309688 41.233067s44.100267 22.619022 23.1424 64.9216c-19.8656 40.118044-116.303644 127.863467-116.303644 127.863467l86.539378 53.953422c59.687822-129.706667 55.933156-112.389689 70.997333-159.061333 15.405511-47.604622 18.659556-83.899733-7.441067-110.091378C321.991111 437.953422 318.350222 434.835911 268.242489 397.698844z m222.435555-69.973333c13.676089-23.779556 20.297956-39.253333 20.297956-39.253333L431.149511 266.080711S398.9504 371.0976 341.515378 420.113067c0 0 55.523556 32.039822 54.909155 31.106844 15.9744-15.906133 30.196622-32.085333 42.712178-47.809422a1621.788444 1621.788444 0 0 1 36.977778-15.678578c-14.722844 26.578489-38.616178 66.400711-62.486756 91.477333l33.632711 29.445689s22.892089-22.004622 47.945956-48.583111h28.558222v48.992711h-111.388444v39.207823h111.388444v93.980444c-1.388089-0.068267-2.798933-0.068267-4.187022-0.136533-12.288-0.637156-31.448178-2.685156-38.912-14.449778-9.124978-14.381511-2.4576-40.823467-2.002489-56.979911h-76.686222l-2.844445 1.410844s-28.034844 126.043022 81.237334 123.221334c102.308978 2.776178 160.950044-28.444444 189.075911-50.084978l11.172978 41.710933 63.123911-26.168889-42.621156-104.630044-51.313778 15.951644 9.6256 35.862756a159.971556 159.971556 0 0 1-44.6464 22.528v-82.215822h108.635023V509.041778h-108.635023V460.071822h109.067378V420.864h-193.786311c13.949156-16.952889 24.940089-32.540444 27.830045-42.461867l-33.678223-9.147733c144.7936-51.837156 225.507556-42.939733 224.756623 42.029511v224.073956s8.669867 77.050311-79.576178 71.452444l-47.604622-10.262755-11.195734 45.2608s205.846756 58.800356 222.663111-99.487289c16.839111-158.242133-4.187022-259.072-4.187022-259.072s-18.591289-146.067911-338.397867-55.523556zM315.574044 377.082311A56.752356 56.752356 0 0 0 372.508444 320.534756 56.775111 56.775111 0 0 0 315.574044 264.009956a56.775111 56.775111 0 0 0-56.957155 56.5248 56.752356 56.752356 0 0 0 56.957155 56.547555z" fill="#F2F2F2" p-id="2960"></path></svg>