<?xml version="1.0" standalone="no"?><!DOCTYPE svg PUBLIC "-//W3C//DTD SVG 1.1//EN" "http://www.w3.org/Graphics/SVG/1.1/DTD/svg11.dtd"><svg t="1540344274199" class="icon" style="" viewBox="0 0 1257 1024" version="1.1" xmlns="http://www.w3.org/2000/svg" p-id="10044" xmlns:xlink="http://www.w3.org/1999/xlink" width="245.5078125" height="200"><defs><style type="text/css"></style></defs><path d="M849.734183 309.35949a391.470329 391.470329 0 0 1 42.938696 2.762138C853.751839 133.084846 662.913193 0 444.453163 0 200.882786 0 0 166.481609 0 376.655223c0 122.036292 66.542423 222.226582 177.781265 301.324179l-44.445316 133.587052 155.433055-77.842079a765.363413 765.363413 0 0 0 155.684159 22.097106c14.061795 0 27.872487 0 41.432075-1.757724a333.214321 333.214321 0 0 1-13.810692-93.159392c0-194.102992 166.732712-351.544875 376.655223-351.544875z m-238.799411-120.529671a52.229524 52.229524 0 0 1 55.744973 55.493869 52.480628 52.480628 0 0 1-55.744973 55.49387 62.273664 62.273664 0 0 1-66.542423-55.49387 62.02256 62.02256 0 0 1 66.542423-55.493869z m-310.866111 111.238842a62.524767 62.524767 0 0 1-67.04463-55.744973 62.273664 62.273664 0 0 1 67.04463-55.493869 52.229524 52.229524 0 0 1 55.49387 55.493869 52.480628 52.480628 0 0 1-55.49387 55.49387z" fill="#01BE0A" p-id="10045"></path><path d="M1255.51741 655.882295c0-178.785679-177.781265-322.667974-376.655223-322.667974-211.429132 0-376.655223 144.886709-376.655223 322.416871S666.679745 979.30358 878.862187 979.30358a557.198627 557.198627 0 0 0 133.335949-22.097106l121.785189 66.793526-34.150073-112.243256c89.141736-67.04463 155.684159-155.684159 155.684158-255.874449zM755.319274 600.137322a47.709662 47.709662 0 0 1-44.445316-44.445316 47.960765 47.960765 0 0 1 44.445316-44.445316 50.220696 50.220696 0 0 1 55.744973 44.445316 50.220696 50.220696 0 0 1-55.744973 44.445316z m244.323688 0a47.709662 47.709662 0 0 1-44.194213-44.445316 47.709662 47.709662 0 0 1 44.194213-44.445316A50.220696 50.220696 0 0 1 1054.634625 555.692006a50.220696 50.220696 0 0 1-55.744973 44.445316z" fill="#01BE0A" p-id="10046"></path></svg>